<?xml version="1.0" encoding="utf-8"?>
<!-- Generator: Adobe Illustrator 22.0.1, SVG Export Plug-In . SVG Version: 6.00 Build 0)  -->
<svg version="1.1" id="Layer_1" xmlns="http://www.w3.org/2000/svg" xmlns:xlink="http://www.w3.org/1999/xlink" x="0px" y="0px"
	 viewBox="0 0 184 30" style="enable-background:new 0 0 184 30;" xml:space="preserve">
<style type="text/css">
	.st0{fill:#E4E6EA;}
</style>
<title>logo</title>
<desc>Created with Sketch.</desc>
<g id="Home" transform="translate(-78.000000, -19.000000)">
	<g id="header" transform="translate(0.000000, -2.000000)">
		<g id="logo" transform="translate(78.000000, 21.000000)">
			<path id="WARE-HOUSE" class="st0" d="M18.8,29.1l-3.8,0l-3.1-18.5l-0.1,0L8.7,29.1l-3.8,0L0.6,0.6l4.4,0l2,18.1l0.1,0l3.2-18.1
				l3.1,0l3.3,18.5l0.1,0l2-18.5l4.3,0L18.8,29.1z M31.9,8.8L31.9,8.8l-2.1,10.3l4.1,0L31.9,8.8z M30.2,0.6l3.4,0l6.3,28.5l-4.1,0
				L34.6,23L29,23l-1.1,6.1l-4.1,0L30.2,0.6z M46,13.2l2.3,0c0.7,0,1.3-0.1,1.7-0.3c0.4-0.2,0.8-0.5,1-0.9c0.2-0.4,0.4-0.8,0.5-1.4
				c0.1-0.5,0.1-1.2,0.1-1.9c0-0.7,0-1.4-0.1-1.9c-0.1-0.5-0.2-1-0.5-1.4c-0.3-0.4-0.6-0.7-1.1-0.9c-0.5-0.2-1.1-0.3-1.8-0.3l-2.1,0
				L46,13.2z M41.9,0.6l6.6,0c4.8,0,7.2,2.8,7.2,8.4c0,1.7-0.3,3.1-0.8,4.3s-1.4,2.1-2.7,2.9l4.4,13l-4.3,0l-3.8-12.2l-2.5,0L46,29
				l-4.1,0L41.9,0.6z M59,0.5l12.2,0l0,3.8l-8.2,0l0,8.4l7,0l0,3.8l-7,0l0,8.4l8.1,0l0,4.1L59,29L59,0.5z M103.9,0.5l4.1,0l0,12.2
				l5,0l0-12.2l4.1,0l0,28.5l-4.1,0l0-12.7l-5,0l0,12.7l-4.1,0L103.9,0.5z M120.7,7.2c0-1.1,0.2-2.2,0.6-3s0.9-1.6,1.6-2.2
				s1.4-1,2.2-1.3s1.6-0.4,2.5-0.4c0.8,0,1.6,0.1,2.5,0.4c0.9,0.3,1.5,0.7,2.2,1.3c0.7,0.6,1.2,1.3,1.6,2.2c0.4,0.9,0.6,1.9,0.6,3
				l0,15c0,1.2-0.2,2.2-0.6,3.1c-0.4,0.9-0.9,1.6-1.6,2.2c-0.7,0.6-1.4,1-2.2,1.3c-0.8,0.3-1.6,0.4-2.5,0.4c-0.8,0-1.6-0.1-2.5-0.4
				s-1.5-0.7-2.2-1.3c-0.7-0.6-1.2-1.3-1.6-2.2c-0.4-0.9-0.6-1.9-0.6-3.1L120.7,7.2z M124.8,22.3c0,1,0.3,1.7,0.8,2.2
				c0.5,0.5,1.2,0.7,1.9,0.7c0.7,0,1.4-0.2,1.9-0.7c0.5-0.5,0.8-1.2,0.8-2.2l0-15c0-1-0.3-1.7-0.8-2.2s-1.2-0.7-1.9-0.7
				c-0.7,0-1.4,0.2-1.9,0.7s-0.8,1.2-0.8,2.2L124.8,22.3z M151.2,22.5c0,0.9-0.2,1.8-0.5,2.6c-0.3,0.8-0.8,1.5-1.4,2.1
				c-0.6,0.6-1.3,1.1-2.1,1.4c-0.8,0.3-1.7,0.5-2.6,0.5c-0.9,0-1.8-0.2-2.6-0.5s-1.5-0.8-2.1-1.4c-0.6-0.6-1.1-1.3-1.4-2.1
				c-0.3-0.8-0.5-1.7-0.5-2.6l0-22.1l4.1,0l0,21.7c0,1,0.2,1.8,0.7,2.2c0.5,0.5,1.1,0.7,1.8,0.7c0.7,0,1.3-0.2,1.8-0.7
				c0.5-0.5,0.7-1.2,0.7-2.2l0-21.7l4.1,0L151.2,22.5z M168.2,8.6l-4.1,0l0-0.9c0-0.9-0.2-1.7-0.7-2.4c-0.5-0.7-1.2-1-2.2-1
				c-0.6,0-1,0.1-1.4,0.3c-0.4,0.2-0.6,0.5-0.8,0.8c-0.2,0.3-0.3,0.7-0.4,1.2c-0.1,0.4-0.1,0.9-0.1,1.4c0,0.6,0,1,0.1,1.4
				c0,0.4,0.1,0.7,0.3,1c0.2,0.3,0.4,0.5,0.7,0.7c0.3,0.2,0.7,0.4,1.3,0.6l3.1,1.2c0.9,0.3,1.6,0.8,2.2,1.2c0.6,0.5,1,1,1.3,1.6
				c0.3,0.6,0.5,1.3,0.6,2.2c0.1,0.8,0.2,1.7,0.2,2.8c0,1.2-0.1,2.3-0.4,3.3c-0.2,1-0.6,1.9-1.2,2.6c-0.5,0.7-1.3,1.3-2.2,1.7
				c-0.9,0.4-2,0.6-3.3,0.6c-1,0-1.9-0.2-2.8-0.5c-0.9-0.3-1.6-0.8-2.2-1.4c-0.6-0.6-1.1-1.3-1.5-2.1c-0.4-0.8-0.5-1.7-0.5-2.7
				l0-1.3l4.1,0l0,1.3c0,0.7,0.2,1.4,0.7,2c0.5,0.6,1.2,0.9,2.2,0.9c0.7,0,1.2-0.1,1.6-0.3c0.4-0.2,0.7-0.5,0.9-0.8
				c0.2-0.4,0.3-0.8,0.4-1.3c0.1-0.5,0.1-1.1,0.1-1.8c0-0.7,0-1.4-0.1-1.8c-0.1-0.5-0.2-0.9-0.3-1.2c-0.2-0.3-0.4-0.5-0.7-0.7
				c-0.3-0.2-0.7-0.4-1.2-0.6l-2.9-1.2c-1.8-0.7-2.9-1.7-3.5-2.9c-0.6-1.2-0.9-2.7-0.9-4.5c0-1.1,0.1-2.1,0.4-3
				c0.3-0.9,0.7-1.8,1.3-2.5c0.6-0.7,1.3-1.2,2.2-1.7s1.9-0.6,3.1-0.6c1,0,1.9,0.2,2.8,0.6c0.8,0.4,1.6,0.9,2.2,1.5s1.1,1.3,1.4,2.1
				c0.3,0.8,0.5,1.5,0.5,2.3l0,1.9L168.2,8.6z M171.3,0.4l12.2,0l0,3.8l-8.1,0l0,8.4l7,0l0,3.8l-7,0l0,8.4l8.1,0l0,4.1l-12.2,0
				L171.3,0.4z"/>
			<path id="Combined-Shape" class="st0" d="M77,8.3L87.5,0L98,8.3L98,29l-21,0L77,8.3z"/>
		</g>
	</g>
</g>
</svg>
